<svg xmlns="http://www.w3.org/2000/svg" viewBox="0 0 100 100">
  <rect width="100" height="100" fill="#2563eb"/>
  <rect x="20" y="25" width="60" height="55" rx="3" fill="#fff"/>
  <rect x="20" y="25" width="60" height="12" rx="3" fill="#1e40af"/>
  <rect x="20" y="29" width="60" height="8" fill="#1e40af"/>
  <rect x="30" y="20" width="4" height="10" rx="2" fill="#fff"/>
  <rect x="66" y="20" width="4" height="10" rx="2" fill="#fff"/>
  <circle cx="30" cy="47" r="2.5" fill="#2563eb"/>
  <circle cx="40" cy="47" r="2.5" fill="#2563eb"/>
  <circle cx="50" cy="47" r="2.5" fill="#2563eb"/>
  <circle cx="60" cy="47" r="2.5" fill="#2563eb"/>
  <circle cx="70" cy="47" r="2.5" fill="#2563eb"/>
  <circle cx="30" cy="55" r="2.5" fill="#2563eb"/>
  <circle cx="40" cy="55" r="2.5" fill="#2563eb"/>
  <circle cx="50" cy="55" r="2.5" fill="#2563eb"/>
  <circle cx="60" cy="55" r="2.5" fill="#2563eb"/>
  <circle cx="70" cy="55" r="2.5" fill="#2563eb"/>
  <circle cx="30" cy="63" r="2.5" fill="#2563eb"/>
  <circle cx="40" cy="63" r="2.5" fill="#2563eb"/>
  <circle cx="50" cy="63" r="2.5" fill="#2563eb"/>
  <circle cx="60" cy="63" r="2.5" fill="#2563eb"/>
  <circle cx="70" cy="63" r="2.5" fill="#2563eb"/>
  <circle cx="30" cy="71" r="2.5" fill="#2563eb"/>
  <circle cx="40" cy="71" r="2.5" fill="#2563eb"/>
  <circle cx="50" cy="71" r="2.5" fill="#2563eb"/>
  <circle cx="60" cy="71" r="2.5" fill="#2563eb"/>
  <circle cx="70" cy="71" r="2.5" fill="#2563eb"/>
</svg>
